# xmcd
#
# Track frame offsets:
#	154
#	20712
#	43203
#	60909
#	76668
#	94201
#	109765
#	131963
#	144828
#	157249
#
# Disc length: 2275 seconds
#
# Revision: 1
# Processed by: cddbd v1.5.2PL0 Copyright (c) Steve Scherf et al.
# Submitted via: audiograbber 1.83.01
#
DISCID=8408e10a
DTITLE=Ménard, Sylvain - S'il n'y avait plus de lendemain...
DYEAR=1999
DGENRE=Country
TTITLE0=Jamais
TTITLE1=J'ai oublié de vivre
TTITLE2=S'il n'y avait plus de lendemain
TTITLE3=Jean, Johnny, Jean
TTITLE4=C'est la saison
TTITLE5=Pardon
TTITLE6=Cap enragé
TTITLE7=Je t'en prie, aide-moi
TTITLE8=Celui qui gagne
TTITLE9=Mon amour, mon amie
EXTD=Premier CD
EXTT0=
EXTT1=
EXTT2=
EXTT3=
EXTT4=
EXTT5=
EXTT6=
EXTT7=
EXTT8=
EXTT9=
PLAYORDER=
